# xmcd
#
# Track frame offsets:
# 150
# 15531
# 30943
# 45937
# 59099
# 77597
# 94639
# 114391
# 131057
# 150617
# 169669
# 189933
#
# Disc length: 2734 seconds
#
# Revision: 0
# Processed by: cddbd v1.5.2PL0 Copyright (c) Steve Scherf et al.
# Submitted via: Axialis_AX_CDPlayer 2.6
#
DISCID=850aac0c
DTITLE=Montgomery Gentry - Some People Change
DYEAR=1900
DGENRE=
TTITLE0=Some People Change
TTITLE1=Hey Country
TTITLE2=Lucky Man
TTITLE3=Takes All Kinds
TTITLE4=Your Tears Are Comin'
TTITLE5=Clouds
TTITLE6=Twenty Years Ago
TTITLE7=What Do Ya Think About That
TTITLE8=Redder Than That
TTITLE9=A Man's Job
TTITLE10=If You Wanna Keep An Angel
TTITLE11=Free Ride In The Fast Lane
EXTD=
EXTT0=
EXTT1=
EXTT2=
EXTT3=
EXTT4=
EXTT5=
EXTT6=
EXTT7=
EXTT8=
EXTT9=
EXTT10=
EXTT11=
PLAYORDER=
